<svg width="512" height="512" viewBox="0 0 512 512" fill="none" xmlns="http://www.w3.org/2000/svg">
  <rect width="512" height="512" rx="120" fill="#5B8CFF"/>
  <path d="M365 318H171C136.206 318 108 289.794 108 255C108 227.468 125.847 204.095 150.577 195.915C160.846 152.028 201.361 119 249.5 119C304.077 119 348.728 161.469 351.979 215.233C381.794 220.801 404 246.953 404 278.5C404 300.868 385.868 319 363.5 319H365V318Z" fill="white"/>
  <path d="M334 221C350.569 221 364 207.569 364 191C364 174.431 350.569 161 334 161C317.431 161 304 174.431 304 191C304 207.569 317.431 221 334 221Z" fill="white" fill-opacity="0.28"/>
  <path d="M208 180C223.464 180 236 167.464 236 152C236 136.536 223.464 124 208 124C192.536 124 180 136.536 180 152C180 167.464 192.536 180 208 180Z" fill="white" fill-opacity="0.22"/>
</svg>
